<mxfile host="app.diagrams.net" modified="2023-11-02T06:55:00.804Z" agent="Mozilla/5.0 (Windows NT 10.0; Win64; x64) AppleWebKit/537.36 (KHTML, like Gecko) Chrome/118.0.0.0 Safari/537.36" version="22.0.8" etag="j2orwjTZWBy6WECwRX4o" type="github">
  <diagram name="페이지-1" id="gUxsMxwYreNB5Q-uVKgw">
    <mxGraphModel>
      <root>
        <mxCell id="0" />
        <mxCell id="1" parent="0" />
      </root>
    </mxGraphModel>
  </diagram>
</mxfile>
